# xmcd
# 
# Track frame offsets:
#     150
#     18688
#     37547
#     56053
# 
# Disc length: 992
# 
# Revision: 0
# Processed by: cddbd v1.5.2PL0 Copyright (c) Steve Scherf et al.
# Submitted via: fre:ac v1.0.31
# 
DISCID=2803de04
DTITLE=Chant - Something To Give
DYEAR=1997
DGENRE=Counrty
TTITLE0=Something To Give (V. Jepas/D. Porlas)
TTITLE1=Something To Give (Unplugged Mix)
TTITLE2=Will You Still Love Me Tomorrow (J. Goffin/C. King)
TTITLE3=Will You STill Love Me Tomorrow (Unplugged Mix)
EXTD=
EXTT0=
EXTT1=
EXTT2=
EXTT3=
PLAYORDER=
